<svg t="1721976314296" class="icon" viewBox="0 0 1117 1024" version="1.1" xmlns="http://www.w3.org/2000/svg" p-id="4984" width="32" height="32"><path d="M523.357 950.737H53.9a36.166 36.166 0 0 0 0 72.192h469.457a36.166 36.166 0 0 0 0-72.192zM1064.308 671L626.13 440.46l97.886-169.564a72.239 72.239 0 0 0-26.392-98.63L416.163 9.775a72.239 72.239 0 0 0-98.63 26.39l-307.06 531.55a72.239 72.239 0 0 0 26.391 98.676l281.507 162.444a72.239 72.239 0 0 0 98.583-26.345l98.397-170.496 422.447 257.862a36.12 36.12 0 0 0 49.338-13.219l90.252-156.346a35.84 35.84 0 0 0-13.08-49.338z m-691.665 64.093a36.12 36.12 0 0 1-49.338 13.22L104.4 621.846a36.12 36.12 0 0 1-13.172-49.291l270.755-469.039a36.12 36.12 0 0 1 49.338-13.172l218.857 126.37c17.222 9.961 23.133 32.07 13.172 49.339L372.643 735.046z m570.135 74.194L552.495 567.994l36.119-62.51 408.343 210.06-54.179 93.742z" fill="#ABB6FF" p-id="4985"></path></svg>